<svg id="Capa_1" data-name="Capa 1" xmlns="http://www.w3.org/2000/svg" viewBox="0 0 1196 200"><defs><style>.cls-1{fill:#0a2859;}.cls-2{fill:#f6fc03;}</style></defs><title>gráfic</title><rect class="cls-1" x="0.5" y="0.5" width="1195" height="199"/><path d="M1195,1V199H1V1H1195m1-1H0V200H1196V0Z"/><polygon class="cls-2" points="23.83 42.45 9.01 31.24 26.93 26.29 33.01 8.73 43.25 24.24 61.83 24.6 50.24 39.13 55.65 56.91 38.25 50.38 23 61.02 23.83 42.45"/><path d="M33.15,9.85,42.69,24.3l.29.44h.52l17.31.33L50,38.61l-.33.41.15.51,5,16.56L38.67,50l-.49-.19-.44.3L23.55,60l.77-17.29,0-.53-.42-.32L10.12,31.45l16.69-4.6.5-.14.17-.5L33.15,9.85m-.28-2.24L26.54,25.88,7.9,31,23.32,42.69,22.46,62,38.32,51l18.1,6.79L50.8,39.24,62.85,24.12l-19.33-.37L32.87,7.61Z"/><polygon class="cls-2" points="121.36 72.42 96.35 54.59 125.71 45.59 134.94 16.3 152.58 41.44 183.29 41.17 164.82 65.71 174.57 94.83 145.53 84.85 120.84 103.12 121.36 72.42"/><path d="M135.12,17.41,152,41.51l.3.43h.53l29.43-.26L164.58,65.2l-.31.42.16.49L173.78,94l-27.84-9.56-.5-.18-.42.32-23.66,17.51.49-29.43v-.53l-.43-.3-24-17.09,28.14-8.63.5-.15.16-.51,8.85-28.07m-.35-2.23-9.45,30L95.24,54.4l25.61,18.27-.52,31.46,25.28-18.72,29.76,10.22-10-29.83L184.3,40.66l-31.46.28L134.77,15.18Z"/><polygon class="cls-2" points="242.47 112.3 220.02 93.3 248.76 87.04 259.9 59.81 274.73 85.21 304.07 87.39 284.49 109.35 291.48 137.92 264.55 126.09 239.54 141.57 242.47 112.3"/><path d="M260,60.94l14.19,24.3.26.45.53,0L303,87.82l-18.73,21-.35.39.13.52,6.69,27.33L265,125.74l-.48-.21-.44.28-23.93,14.8,2.8-28,.05-.52-.4-.34L221.11,93.57l27.5-6,.51-.11.2-.49,10.66-26m-.16-2.25L248.39,86.61,218.92,93l23,19.5-3,30,25.65-15.87,27.62,12.13L285,109.49,305.11,87,275,84.73l-15.21-26Z"/><polygon class="cls-2" points="336.33 128.6 314.19 116.73 337.08 106.37 341.52 81.64 358.45 100.22 383.34 96.8 370.91 118.64 381.85 141.25 357.24 136.18 339.11 153.57 336.33 128.6"/><path d="M341.84,82.73l16.06,17.63.35.39.52-.08,23.63-3.24-11.8,20.73-.26.46.23.47L381,140.56l-23.35-4.82-.52-.11-.38.37-17.21,16.51-2.63-23.7-.06-.53-.46-.25-21-11.26L337,106.94l.48-.22.1-.52,4.22-23.47m-.63-2.17L336.63,106l-23.57,10.66,22.8,12.23,2.86,25.71,18.68-17.91L382.74,142l-11.27-23.3,12.8-22.48-25.63,3.51L341.21,80.56Z"/><polygon class="cls-2" points="396.82 68.29 375.62 55.91 398.34 46.61 403.56 22.62 419.43 41.36 443.86 38.91 430.94 59.79 440.82 82.27 416.97 76.44 398.64 92.78 396.82 68.29"/><path d="M403.84,23.72l15,17.76.34.4.52-.05,23.16-2.32-12.24,19.8-.28.44.21.49L440,81.55,417.34,76l-.51-.13-.39.35L399.06,91.73l-1.72-23.21,0-.53-.46-.26L376.74,56l21.55-8.81.48-.2.12-.52,4.95-22.74m-.55-2.19-5.38,24.72-23.42,9.58,21.85,12.76,1.88,25.24L417.1,77l24.58,6L431.51,59.83l13.31-21.51-25.18,2.52L403.29,21.53Z"/><polygon class="cls-2" points="547.91 92.51 527.89 75.89 553.26 70.11 562.89 45.94 576.22 68.28 602.19 69.97 585.06 89.56 591.48 114.77 567.55 104.53 545.56 118.43 547.91 92.51"/><path d="M563,47.06l12.68,21.26.27.45.52,0,24.7,1.6L584.85,89l-.34.39.13.51,6.1,24L568,104.17l-.48-.2-.44.28-20.92,13.22,2.23-24.65,0-.52L548,92,529,76.15l24.13-5.49.51-.12.19-.49,9.16-23m-.18-2.25-9.91,24.87-26.1,5.94,20.59,17.11L545,119.39l22.63-14.3,24.61,10.54L585.6,89.69l17.63-20.15L576.52,67.8l-13.72-23Z"/><polygon class="cls-2" points="648.64 117.16 617.06 103.21 647.34 86.63 650.85 52.28 675.98 75.96 709.73 68.68 694.97 99.89 712.32 129.74 678.08 125.36 655.05 151.08 648.64 117.16"/><path d="M651.24,53.34l24.2,22.8.38.36.52-.11,32.5-7L694.63,99.44l-.22.48.26.45,16.71,28.75-33-4.22-.52-.07-.35.39L655.35,150l-6.17-32.68-.1-.51-.48-.21-30.41-13.44,29.16-16,.46-.25.05-.52,3.38-33.08m-.79-2.12-3.58,35.1-30.94,16.94,32.27,14.25,6.55,34.66,23.52-26.28,35,4.48-17.72-30.5L710.61,68l-34.48,7.43L650.45,51.22Z"/><polygon class="cls-2" points="745.93 68.38 722.9 55.62 747.03 45.1 752.05 19.26 769.51 38.96 795.64 35.74 782.3 58.44 793.43 82.29 767.73 76.62 748.48 94.58 745.93 68.38"/><path d="M752.34,20.35,769,39.09l.35.4.52-.07,24.86-3.06L782,58l-.26.45.22.48,10.59,22.7-24.46-5.4-.51-.11-.39.35-18.31,17.1-2.43-24.94-.05-.52-.46-.26L724,55.68l23-10,.48-.21.1-.52,4.77-24.59m-.59-2.18-5.16,26.58L721.77,55.57l23.69,13.12,2.62,27,19.8-18.47L794.32,83,782.86,58.46l13.72-23.34-26.87,3.31-18-20.26Z"/><polygon class="cls-2" points="907.1 110.72 887.52 92.67 913.77 88.11 924.89 63.9 937.34 87.45 963.79 90.55 945.24 109.67 950.47 135.79 926.56 124.05 903.33 137.09 907.1 110.72"/><path d="M924.92,65l11.85,22.42.25.47.52.06,25.19,3-17.67,18.2-.36.38.1.51,5,24.87L927,123.72l-.47-.23-.46.25L904,136.16l3.59-25.11.08-.52-.39-.35L888.6,93l25-4.34.52-.09.22-.47,10.59-23m-.06-2.26L913.42,87.66l-27,4.69,20.13,18.56L902.69,138l23.88-13.42,24.59,12.07-5.38-26.85,19.08-19.66L937.66,87l-12.8-24.22Z"/><polygon class="cls-2" points="991.07 77.42 961.19 61.73 991.82 47.55 997.5 14.28 1020.45 39.03 1053.85 34.16 1037.41 63.63 1052.37 93.89 1019.25 87.36 995.09 110.94 991.07 77.42"/><path d="M997.82,15.36l22.09,23.82.36.38.52-.07,32.13-4.69L1037.1,63.16l-.26.46.24.47,14.39,29.12-31.87-6.29-.51-.1-.38.37-23.24,22.68L991.6,77.62l-.06-.52-.47-.24-28.76-15.1,29.48-13.64.48-.22.08-.52,5.47-32m-.64-2.16-5.81,34-31.31,14.5,30.55,16L994.72,112l24.69-24.1,33.85,6.68L1038,63.65l16.81-30.14-34.14,5L997.18,13.2Z"/><polygon class="cls-2" points="765.2 144.68 740.14 128.9 767.91 118.6 775.17 89.89 793.54 113.11 823.1 111.15 806.68 135.8 817.69 163.3 789.17 155.31 766.41 174.27 765.2 144.68"/><path d="M775.4,91,793,113.22l.32.41.53,0,28.28-1.89L806.41,135.3l-.29.44.19.49,10.54,26.31-27.3-7.64-.5-.15-.41.34-21.77,18.15-1.16-28.32,0-.53-.44-.28-24-15.09,26.57-9.86.5-.18.13-.51L775.4,91m-.47-2.21-7.44,29.44L739,128.78,764.71,145,766,175.3l23.32-19.44,29.25,8.19-11.29-28.19,16.83-25.28-30.3,2L774.93,88.78Z"/><polygon class="cls-2" points="1073.85 150.53 1046.66 134.59 1075.85 122.71 1082.62 91.92 1102.94 116.02 1134.31 112.94 1117.67 139.71 1130.29 168.59 1099.69 161.04 1076.13 181.97 1073.85 150.53"/><path d="M1082.89,93l19.5,23.12.33.4.53-.05,30.1-3-16,25.69-.27.45.21.48,12.11,27.71-29.36-7.24-.51-.13-.4.35-22.61,20.08-2.19-30.16,0-.53-.46-.26-26.08-15.3,28-11.4.48-.2.12-.51L1082.89,93m-.54-2.2-6.93,31.52-29.89,12.17,27.84,16.32L1075.7,183l24.13-21.43,31.33,7.73-12.93-29.57,17-27.41-32.12,3.15-20.8-24.67Z"/><polygon class="cls-2" points="1097.8 57.14 1074.74 47.95 1096.06 35.24 1097.68 10.47 1116.35 26.83 1140.41 20.71 1130.63 43.52 1143.88 64.52 1119.16 62.26 1103.29 81.35 1097.8 57.14"/><path d="M1098.11,11.52,1115.83,27l.39.34.51-.12,22.82-5.8-9.28,21.64-.2.48.28.44,12.57,19.92-23.45-2.14-.53,0-.33.41-15.06,18.1-5.21-23-.12-.51-.48-.2-21.87-8.72,20.22-12,.45-.27,0-.53,1.53-23.49m-.86-2.09L1095.58,35l-22,13.09,23.75,9.47L1103,82.45l16.35-19.67,25.46,2.33-13.65-21.63L1141.27,20l-24.78,6.3L1097.25,9.43Z"/></svg>